<?xml version="1.0" encoding="UTF-8"?>
<svg id="Layer_2" data-name="Layer 2" xmlns="http://www.w3.org/2000/svg" viewBox="0 0 82.21 47.62">
  <defs>
    <style>
      .cls-1 {
        stroke-width: 2.68px;
      }

      .cls-1, .cls-2 {
        fill: none;
        stroke: #fff;
      }

      .cls-2 {
        stroke-width: .54px;
      }
    </style>
  </defs>
  <g id="Layer_1-2" data-name="Layer 1">
    <g>
      <g>
        <path class="cls-1" d="M12.75,18.55c.69-1.62,1.68-3.08,2.91-4.3,1.23-1.23,2.69-2.22,4.3-2.91s3.39-1.07,5.26-1.07h31.76c1.86,0,3.64.38,5.26,1.07s3.08,1.68,4.3,2.91c1.23,1.23,2.22,2.69,2.91,4.3.69,1.62,1.07,3.39,1.07,5.26h0"/>
        <path class="cls-1" d="M11.69,23.81h0s0,0,0,0h0c0,1.86.38,3.64,1.07,5.26s1.68,3.08,2.91,4.3,2.69,2.22,4.3,2.91,3.39,1.07,5.26,1.07h31.76c1.86,0,3.64-.38,5.26-1.07s3.08-1.68,4.3-2.91,2.22-2.69,2.91-4.3"/>
      </g>
      <path class="cls-2" d="M3.59,46.67c1.23-1.23,2.69-2.22,4.3-2.91s3.39-1.07,5.26-1.07h55.91c1.86,0,3.64.38,5.26,1.07s3.08,1.68,4.3,2.91"/>
      <path class="cls-2" d="M78.62.95c-1.23,1.23-2.69,2.22-4.3,2.91s-3.39,1.07-5.26,1.07H13.15c-1.86,0-3.64-.38-5.26-1.07S4.81,2.17,3.59.95"/>
      <line class="cls-2" x1="69.17" y1="23.81" x2="82.21" y2="23.81"/>
      <line class="cls-2" y1="23.81" x2="13.02" y2="23.81"/>
      <path class="cls-1" d="M41.49,42.7h27.57c1.86,0,3.64.38,5.26,1.07s3.08,1.68,4.3,2.91"/>
      <path class="cls-1" d="M40.71,4.92H13.15c-1.86,0-3.64-.38-5.26-1.07S4.81,2.17,3.59.95"/>
    </g>
  </g>
</svg>