<?xml version="1.0" encoding="UTF-8"?>
<svg id="Layer_2" data-name="Layer 2" xmlns="http://www.w3.org/2000/svg" viewBox="0 0 257 41.51">
  <defs>
    <style>
      .cls-1 {
        fill: #fff;
        opacity: .2;
        stroke-width: 0px;
      }
    </style>
  </defs>
  <g id="Layer_1-2" data-name="Layer 1">
    <path class="cls-1" d="M13.68,10.97c-2.55-1.68-4.24-2.35-6.28-2.35-2.76,0-4.9,1.69-4.9,3.88,0,5.51,11.9,3.42,11.9,11.39,0,3.58-3.27,6.33-7.51,6.33-2.35,0-4.54-.66-6.89-2.09v-2.4c3.01,1.53,5,2.09,7.2,2.09,2.81,0,4.85-1.63,4.85-3.98C12.05,18.37.15,20.01.15,12.65c0-3.52,3.27-6.28,7.4-6.28,1.99,0,3.83.61,6.13,1.94v2.66ZM29.36,30.22h-1.53L17.41,6.83h2.5l8.63,19.3,8.27-19.3h2.4l-9.85,23.39ZM60.15,8.82h-5.21c2.2,2.04,3.17,3.78,3.17,6.08,0,10.26-13.02,6.89-13.02,11.34,0,5,15.01-1.12,15.01,8.58,0,4.19-3.83,6.69-10.26,6.69-7.05,0-10.06-2.86-10.06-6.13,0-2.91,2.4-4.9,6.69-5.57v-.1c-2.45-.56-3.73-1.68-3.73-3.27,0-2.04,1.89-2.91,4.59-3.73v-.1c-4.59-1.33-6.13-4.85-6.13-7.61,0-3.83,2.4-8.17,9.75-8.17h9.19v1.99ZM50.45,30.99c-2.86,0-8.32.41-8.32,4.24,0,2.71,2.81,4.24,7.86,4.24,4.7,0,7.76-1.74,7.76-4.44,0-3.22-3.17-4.03-7.3-4.03ZM49.59,8.88c-3.42,0-6.03,2.66-6.03,5.97s2.6,6.23,6.08,6.23,6.13-2.76,6.13-6.13-2.76-6.08-6.18-6.08ZM77.46,6.82l-7.32,23.4h-1.57l7.35-23.4h1.54ZM93.54,6.82l-7.32,23.4h-1.57l7.36-23.4h1.54ZM122.35,7.12h1.77v22.8h-1.77V9.7h-.07l-8.63,10.66-8.63-10.66h-.07v20.23h-1.77V7.12h1.77l8.69,10.6,8.69-10.6ZM148.53,8.59h-10.66v9.13h10.4v1.47h-10.4v9.26h10.93v1.47h-12.7V7.12h12.44v1.47ZM142.28,5.21h-1.1l3.48-5.21h2.71l-5.08,5.21ZM178.21,7.12h1.77v22.8h-1.77V9.7h-.07l-8.63,10.66-8.63-10.66h-.07v20.23h-1.77V7.12h1.77l8.69,10.6,8.69-10.6ZM203.01,30.22c-6.75,0-12.04-5.15-12.04-11.7s5.28-11.7,12.04-11.7,12.1,5.15,12.1,11.7-5.31,11.7-12.1,11.7ZM203.08,8.46c-5.72,0-10.2,4.38-10.2,10.06s4.48,10.06,10.2,10.06,10.13-4.38,10.13-10.06-4.41-10.06-10.13-10.06ZM227.85,29.92h-1.77V7.12h1.77v22.8ZM245.6,7.12c5.58,0,7.56,2.84,7.56,5.88,0,2.64-1.44,4.48-4.35,5.55,1.07.57,1.97,1.87,3.04,3.48l5.15,7.89h-2.07l-3.98-6.25c-2.74-4.31-3.61-4.68-6.35-4.68h-3.08v10.93h-1.77V7.12h5.85ZM241.52,17.52h3.78c4.01,0,5.95-1.74,5.95-4.48,0-2.57-1.84-4.45-6.02-4.45h-3.71v8.93Z"/>
  </g>
</svg>