<?xml version="1.0" encoding="UTF-8"?>
<svg id="Layer_2" data-name="Layer 2" xmlns="http://www.w3.org/2000/svg" viewBox="0 0 41.51 257">
  <defs>
    <style>
      .cls-1 {
        fill: #fff;
        isolation: isolate;
        opacity: .2;
        stroke-width: 0px;
      }
    </style>
  </defs>
  <g id="Layer_1-2" data-name="Layer 1-2">
    <path class="cls-1" d="M30.54,13.68c1.68-2.55,2.35-4.24,2.35-6.28,0-2.76-1.69-4.9-3.88-4.9-5.51,0-3.42,11.9-11.39,11.9-3.58,0-6.33-3.27-6.33-7.51C11.29,4.54,11.95,2.35,13.38,0h2.4c-1.53,3.01-2.09,5-2.09,7.2,0,2.81,1.63,4.85,3.98,4.85,5.47,0,3.83-11.9,11.19-11.9,3.52,0,6.28,3.27,6.28,7.4,0,1.99-.61,3.83-1.94,6.13h-2.66ZM11.29,29.36v-1.53l23.39-10.42v2.5l-19.3,8.63,19.3,8.27v2.4s-23.39-9.85-23.39-9.85ZM32.69,60.15v-5.21c-2.04,2.2-3.78,3.17-6.08,3.17-10.26,0-6.89-13.02-11.34-13.02-5,0,1.12,15.01-8.58,15.01C2.5,60.1,0,56.27,0,49.84,0,42.79,2.86,39.78,6.13,39.78c2.91,0,4.9,2.4,5.57,6.69h.1c.56-2.45,1.68-3.73,3.27-3.73,2.04,0,2.91,1.89,3.73,4.59h.1c1.33-4.59,4.85-6.13,7.61-6.13,3.83,0,8.17,2.4,8.17,9.75v9.19h-1.99ZM10.52,50.45c0-2.86-.41-8.32-4.24-8.32-2.71,0-4.24,2.81-4.24,7.86,0,4.7,1.74,7.76,4.44,7.76,3.22,0,4.03-3.17,4.03-7.3h.01ZM32.63,49.59c0-3.42-2.66-6.03-5.97-6.03s-6.23,2.6-6.23,6.08,2.76,6.13,6.13,6.13,6.08-2.76,6.08-6.18h-.01ZM34.69,77.46l-23.4-7.32v-1.57l23.4,7.35s0,1.54,0,1.54ZM34.69,93.54l-23.4-7.32v-1.57l23.4,7.36v1.54h0ZM34.39,122.35v1.77H11.59v-1.77h20.22v-.07l-10.66-8.63,10.66-8.63v-.07H11.58v-1.77h22.81v1.77l-10.6,8.69,10.6,8.69v.02ZM32.92,148.53v-10.66h-9.13v10.4h-1.47v-10.4h-9.26v10.93h-1.47v-12.7h22.8v12.44h-1.47ZM36.3,142.28v-1.1l5.21,3.48v2.71l-5.21-5.08h0ZM34.39,178.21v1.77H11.59v-1.77h20.22v-.07l-10.66-8.63,10.66-8.63v-.07H11.58v-1.77h22.81v1.77l-10.6,8.69,10.6,8.69v.02ZM11.29,203.01c0-6.75,5.15-12.04,11.7-12.04s11.7,5.28,11.7,12.04-5.15,12.1-11.7,12.1-11.7-5.31-11.7-12.1ZM33.05,203.08c0-5.72-4.38-10.2-10.06-10.2s-10.06,4.48-10.06,10.2,4.38,10.13,10.06,10.13,10.06-4.41,10.06-10.13ZM11.59,227.85v-1.77h22.8v1.77H11.59ZM34.39,245.6c0,5.58-2.84,7.56-5.88,7.56-2.64,0-4.48-1.44-5.55-4.35-.57,1.07-1.87,1.97-3.48,3.04l-7.89,5.15v-2.07l6.25-3.98c4.31-2.74,4.68-3.61,4.68-6.35v-3.08h-10.93v-1.77h22.8v5.85h0ZM23.99,241.52v3.78c0,4.01,1.74,5.95,4.48,5.95,2.57,0,4.45-1.84,4.45-6.02v-3.71h-8.93Z"/>
  </g>
</svg>