<?xml version="1.0" encoding="UTF-8"?>
<svg id="Layer_1" data-name="Layer 1" xmlns="http://www.w3.org/2000/svg" viewBox="0 0 80 180">
  <defs>
    <style>
      .cls-1 {
        fill: none;
        opacity: .5;
        stroke: #fff;
        stroke-linejoin: round;
      }

      .cls-2 {
        opacity: .2;
      }

      .cls-3 {
        fill: #fff;
        stroke-width: 0px;
      }
    </style>
  </defs>
  <g class="cls-2">
    <g>
      <path class="cls-3" d="M30.73,25.01h-1.24v-14.95c4.19.26,6.5,3.58,8.68,6.86,2.18,3.25,4.26,6.5,8.03,6.5,3.05,0,5.04-2.6,5.04-5.53,0-4.1-3.02-6.05-6.89-6.05v-1.23c5.36.26,7.96,2.7,7.96,7.08,0,3.8-2.01,6.96-6.14,6.96s-6.4-3.09-8.55-6.3c-2.14-3.22-4.13-6.5-6.89-6.73v13.39Z"/>
      <path class="cls-3" d="M40.71,27.54c5.4,0,11.6,1.66,11.6,8.12s-6.21,8.13-11.6,8.13-11.6-1.66-11.6-8.13,6.21-8.12,11.6-8.12ZM40.71,42.55c4.52,0,10.53-1.27,10.53-6.89s-6.01-6.89-10.53-6.89-10.53,1.27-10.53,6.89,6.01,6.89,10.53,6.89Z"/>
      <path class="cls-3" d="M40.71,45.6c5.4,0,11.6,1.66,11.6,8.12s-6.21,8.13-11.6,8.13-11.6-1.66-11.6-8.13,6.21-8.12,11.6-8.12ZM40.71,60.62c4.52,0,10.53-1.27,10.53-6.89s-6.01-6.89-10.53-6.89-10.53,1.27-10.53,6.89,6.01,6.89,10.53,6.89Z"/>
      <path class="cls-3" d="M52.31,71.79c0,3.48-1.4,6.92-5.62,6.92-2.5,0-4.39-1.4-4.91-4.13h-.06c-.36,3.06-2.6,4.97-5.79,4.97-4.65,0-6.83-3.48-6.83-7.77s2.18-7.77,6.83-7.77c3.18,0,5.43,1.92,5.79,4.97h.06c.52-2.73,2.41-4.13,4.91-4.13,4.22,0,5.62,3.45,5.62,6.92ZM41.16,71.79c0-3.51-1.5-6.53-5.23-6.53-3.97,0-5.75,3.09-5.75,6.53s1.79,6.53,5.75,6.53c3.74,0,5.23-3.02,5.23-6.53ZM51.24,71.79c0-2.96-1.14-5.69-4.55-5.69-3.19,0-4.45,2.79-4.45,5.69s1.27,5.69,4.45,5.69c3.41,0,4.55-2.73,4.55-5.69Z"/>
      <path class="cls-3" d="M30.73,115.33h-1.24v-14.95c4.19.26,6.5,3.58,8.68,6.86,2.18,3.25,4.26,6.5,8.03,6.5,3.05,0,5.04-2.6,5.04-5.53,0-4.1-3.02-6.05-6.89-6.05v-1.23c5.36.26,7.96,2.7,7.96,7.08,0,3.8-2.01,6.96-6.14,6.96s-6.4-3.09-8.55-6.3c-2.14-3.22-4.13-6.5-6.89-6.73v13.39Z"/>
      <path class="cls-3" d="M40.71,117.86c5.4,0,11.6,1.66,11.6,8.12s-6.21,8.12-11.6,8.12-11.6-1.66-11.6-8.12,6.21-8.12,11.6-8.12ZM40.71,132.87c4.52,0,10.53-1.27,10.53-6.89s-6.01-6.89-10.53-6.89-10.53,1.27-10.53,6.89,6.01,6.89,10.53,6.89Z"/>
      <path class="cls-3" d="M29.49,145.77v-1.24h20.02c-1.69-1.59-2.63-3.77-2.86-6.01h1.07c.39,2.6,1.92,4.81,4.19,6.14v1.1h-22.43Z"/>
      <path class="cls-3" d="M51.92,166.17h-15.63v3.77h-1.07v-3.77h-5.72v-1.23h5.72v-10.92h1.24l15.47,10.92v1.23ZM50.23,164.94v-.07l-13.94-9.62v9.69h13.94Z"/>
    </g>
  </g>
  <line class="cls-1" x1="80" y1="89.97" y2="89.97"/>
</svg>