<?xml version="1.0" encoding="UTF-8"?>
<svg id="Layer_1" data-name="Layer 1" xmlns="http://www.w3.org/2000/svg" viewBox="0 0 80 180">
  <defs>
    <style>
      .cls-1 {
        fill: none;
        opacity: .5;
        stroke: #fff;
        stroke-linejoin: round;
      }

      .cls-2 {
        opacity: .2;
      }

      .cls-3 {
        fill: #fff;
        stroke-width: 0px;
      }
    </style>
  </defs>
  <g class="cls-2">
    <g>
      <path class="cls-3" d="M31.07,24.86h-1.24v-14.95c4.19.26,6.5,3.58,8.68,6.86,2.18,3.25,4.26,6.5,8.03,6.5,3.05,0,5.04-2.6,5.04-5.53,0-4.1-3.02-6.05-6.89-6.05v-1.23c5.36.26,7.96,2.7,7.96,7.09,0,3.8-2.01,6.96-6.14,6.96s-6.4-3.09-8.55-6.3c-2.14-3.22-4.13-6.5-6.89-6.73v13.39Z"/>
      <path class="cls-3" d="M41.05,27.39c5.4,0,11.6,1.66,11.6,8.12s-6.21,8.13-11.6,8.13-11.6-1.66-11.6-8.13,6.21-8.12,11.6-8.12ZM41.05,42.41c4.52,0,10.53-1.27,10.53-6.89s-6.01-6.89-10.53-6.89-10.53,1.27-10.53,6.89,6.01,6.89,10.53,6.89Z"/>
      <path class="cls-3" d="M29.83,55.3v-1.23h20.02c-1.69-1.59-2.63-3.77-2.86-6.01h1.07c.39,2.6,1.92,4.81,4.19,6.14v1.1h-22.43Z"/>
      <path class="cls-3" d="M52.26,75.71h-15.63v3.77h-1.07v-3.77h-5.72v-1.23h5.72v-10.92h1.24l15.47,10.92v1.23ZM50.57,74.47v-.07l-13.94-9.62v9.69h13.94Z"/>
      <path class="cls-3" d="M31.07,115.18h-1.24v-14.95c4.19.26,6.5,3.58,8.68,6.86,2.18,3.25,4.26,6.5,8.03,6.5,3.05,0,5.04-2.6,5.04-5.53,0-4.1-3.02-6.05-6.89-6.05v-1.23c5.36.26,7.96,2.7,7.96,7.09,0,3.8-2.01,6.96-6.14,6.96s-6.4-3.09-8.55-6.3c-2.14-3.22-4.13-6.5-6.89-6.73v13.39Z"/>
      <path class="cls-3" d="M41.05,117.71c5.4,0,11.6,1.66,11.6,8.12s-6.21,8.12-11.6,8.12-11.6-1.66-11.6-8.12,6.21-8.12,11.6-8.12ZM41.05,132.73c4.52,0,10.53-1.27,10.53-6.89s-6.01-6.89-10.53-6.89-10.53,1.27-10.53,6.89,6.01,6.89,10.53,6.89Z"/>
      <path class="cls-3" d="M31.07,151.31h-1.24v-14.95c4.19.26,6.5,3.57,8.68,6.86,2.18,3.25,4.26,6.5,8.03,6.5,3.05,0,5.04-2.6,5.04-5.53,0-4.1-3.02-6.04-6.89-6.04v-1.23c5.36.26,7.96,2.7,7.96,7.08,0,3.8-2.01,6.96-6.14,6.96s-6.4-3.09-8.55-6.3c-2.14-3.22-4.13-6.5-6.89-6.73v13.39Z"/>
      <path class="cls-3" d="M41.05,153.84c5.4,0,11.6,1.66,11.6,8.12s-6.21,8.12-11.6,8.12-11.6-1.66-11.6-8.12,6.21-8.12,11.6-8.12ZM41.05,168.85c4.52,0,10.53-1.27,10.53-6.89s-6.01-6.89-10.53-6.89-10.53,1.27-10.53,6.89,6.01,6.89,10.53,6.89Z"/>
    </g>
  </g>
  <line class="cls-1" x1="80.16" y1="90.03" x2=".16" y2="90.03"/>
</svg>